solid XMin
facet normal -1 0 0
outer loop
vertex -0.3 0.3 0.3
vertex -0.3 0.3 -0.3
vertex -0.3 -0.3 0.3
endloop
endfacet
facet normal -1 0 0
outer loop
vertex -0.3 0.3 -0.3
vertex -0.3 -0.3 -0.3
vertex -0.3 -0.3 0.3
endloop
endfacet
endsolid XMin
solid XMax
facet normal 1 0 0
outer loop
vertex 1 -0.3 0.3
vertex 1 0.3 -0.3
vertex 1 0.3 0.3
endloop
endfacet
facet normal 1 0 0
outer loop
vertex 1 -0.3 0.3
vertex 1 -0.3 -0.3
vertex 1 0.3 -0.3
endloop
endfacet
endsolid XMax
solid YMin
facet normal 0 -1 0
outer loop
vertex -0.3 -0.3 -0.3
vertex 1 -0.3 -0.3
vertex 1 -0.3 0.3
endloop
endfacet
facet normal 0 -1 0
outer loop
vertex -0.3 -0.3 0.3
vertex -0.3 -0.3 -0.3
vertex 1 -0.3 0.3
endloop
endfacet
endsolid YMin
solid YMax
facet normal 0 1 0
outer loop
vertex 1 0.3 0.3
vertex 1 0.3 -0.3
vertex -0.3 0.3 -0.3
endloop
endfacet
facet normal 0 1 0
outer loop
vertex 1 0.3 0.3
vertex -0.3 0.3 -0.3
vertex -0.3 0.3 0.3
endloop
endfacet
endsolid YMax
solid ZMin
facet normal 0 0 -1
outer loop
vertex -0.3 -0.3 -0.3
vertex -0.3 0.3 -0.3
vertex 1 0.3 -0.3
endloop
endfacet
facet normal 0 0 -1
outer loop
vertex 1 -0.3 -0.3
vertex -0.3 -0.3 -0.3
vertex 1 0.3 -0.3
endloop
endfacet
endsolid ZMin
solid ZMax
facet normal 0 0 1
outer loop
vertex 1 0.3 0.3
vertex -0.3 0.3 0.3
vertex -0.3 -0.3 0.3
endloop
endfacet
facet normal 0 0 1
outer loop
vertex 1 0.3 0.3
vertex -0.3 -0.3 0.3
vertex 1 -0.3 0.3
endloop
endfacet
endsolid ZMax
